<svg xmlns="http://www.w3.org/2000/svg" viewBox="0 0 500 500"><g id="freepik--background-complete--inject-12"><rect x="416.78" y="398.49" width="33.12" height="0.25" style="fill:#ebebeb"></rect><rect x="322.53" y="401.21" width="8.69" height="0.25" style="fill:#ebebeb"></rect><rect x="396.59" y="389.21" width="19.19" height="0.25" style="fill:#ebebeb"></rect><rect x="52.46" y="390.89" width="43.19" height="0.25" style="fill:#ebebeb"></rect><rect x="104.56" y="390.89" width="6.33" height="0.25" style="fill:#ebebeb"></rect><rect x="131.47" y="395.11" width="93.68" height="0.25" style="fill:#ebebeb"></rect><path d="M237,337.8H43.92a5.71,5.71,0,0,1-5.71-5.71V60.66A5.71,5.71,0,0,1,43.92,55H237a5.71,5.71,0,0,1,5.71,5.71V332.09A5.71,5.71,0,0,1,237,337.8ZM43.92,55.2a5.47,5.47,0,0,0-5.46,5.46V332.09a5.47,5.47,0,0,0,5.46,5.46H237a5.47,5.47,0,0,0,5.46-5.46V60.66A5.47,5.47,0,0,0,237,55.2Z" style="fill:#ebebeb"></path><path d="M453.31,337.8H260.21a5.72,5.72,0,0,1-5.71-5.71V60.66A5.72,5.72,0,0,1,260.21,55h193.1A5.71,5.71,0,0,1,459,60.66V332.09A5.71,5.71,0,0,1,453.31,337.8ZM260.21,55.2a5.47,5.47,0,0,0-5.46,5.46V332.09a5.47,5.47,0,0,0,5.46,5.46h193.1a5.47,5.47,0,0,0,5.46-5.46V60.66a5.47,5.47,0,0,0-5.46-5.46Z" style="fill:#ebebeb"></path><rect y="382.4" width="500" height="0.25" style="fill:#ebebeb"></rect><path d="M213.63,330.66h3.58a0,0,0,0,1,0,0v51.5a1.19,1.19,0,0,1-1.19,1.19h-1.21a1.19,1.19,0,0,1-1.19-1.19v-51.5A0,0,0,0,1,213.63,330.66Z" style="fill:#f0f0f0"></path><rect x="293.47" y="325.98" width="31.05" height="4.68" style="fill:#e6e6e6"></rect><path d="M235.82,330.66h3.58a0,0,0,0,1,0,0v51.5a1.19,1.19,0,0,1-1.19,1.19H237a1.19,1.19,0,0,1-1.19-1.19v-51.5A0,0,0,0,1,235.82,330.66Z" style="fill:#e6e6e6"></path><path d="M318.86,330.66h3.58a0,0,0,0,1,0,0v51.5a1.19,1.19,0,0,1-1.19,1.19H320a1.19,1.19,0,0,1-1.19-1.19v-51.5A0,0,0,0,1,318.86,330.66Z" style="fill:#e6e6e6"></path><rect x="211.56" y="325.98" width="90.76" height="4.68" style="fill:#f5f5f5"></rect><path d="M296.67,330.66h3.58a0,0,0,0,1,0,0v51.5a1.19,1.19,0,0,1-1.19,1.19h-1.21a1.19,1.19,0,0,1-1.19-1.19v-51.5A0,0,0,0,1,296.67,330.66Z" style="fill:#f0f0f0"></path><path d="M317.79,326h-8.24v-.73a2.5,2.5,0,0,1,2.64-2.5l3.23.17a2.5,2.5,0,0,1,2.37,2.5Z" style="fill:#f0f0f0"></path><path d="M295.56,309a1.22,1.22,0,0,0-1.22-1.16H286a1.21,1.21,0,0,0-1.21,1.16l2,17.34H299.2Z" style="fill:#e0e0e0"></path><path d="M318.16,282.29h-3.1l-3.49,32.76h3.1a1.06,1.06,0,0,0,1-.93l3.29-30.9A.82.82,0,0,0,318.16,282.29Z" style="fill:#e0e0e0"></path><path d="M313.36,315.05H266.89a.82.82,0,0,1-.83-.93l3.29-30.9a1.06,1.06,0,0,1,1-.93h46.47a.83.83,0,0,1,.83.93l-3.29,30.9A1.06,1.06,0,0,1,313.36,315.05Z" style="fill:#ebebeb"></path><path d="M312.5,312H268.67a.71.71,0,0,1-.72-.81l2.86-26.95a.92.92,0,0,1,.9-.81h43.83a.71.71,0,0,1,.72.81l-2.87,26.95A.91.91,0,0,1,312.5,312Z" style="fill:#fafafa"></path><path d="M299.67,325H284.39a.68.68,0,0,0-.67.68h0a.67.67,0,0,0,.67.67h15.28a.67.67,0,0,0,.67-.67h0A.68.68,0,0,0,299.67,325Z" style="fill:#e0e0e0"></path><rect x="269.14" y="324.05" width="25.91" height="1.93" style="fill:#ebebeb"></rect><rect x="279.53" y="293.43" width="10.1" height="10.1" transform="translate(294.42 -113.81) rotate(45)" style="fill:#f0f0f0"></rect><polygon points="291.2 305.22 295.11 301.31 299.02 305.22 291.2 305.22" style="fill:#ebebeb"></polygon><circle cx="301.73" cy="294.67" r="4.83" style="fill:#e6e6e6"></circle><rect x="219.04" y="332.79" width="38.14" height="50.75" style="fill:#f5f5f5"></rect><rect x="257.18" y="332.79" width="7.28" height="50.75" style="fill:#e6e6e6"></rect><rect x="221.71" y="336.56" width="32.99" height="12.32" style="fill:#fafafa"></rect><rect x="221.71" y="350.23" width="32.99" height="12.32" style="fill:#fafafa"></rect><rect x="221.71" y="363.9" width="32.99" height="12.33" style="fill:#fafafa"></rect><path d="M239.58,342.72a1.38,1.38,0,0,1-2.75,0,1.38,1.38,0,1,1,2.75,0Z" style="fill:#ebebeb"></path><path d="M239.58,356.39a1.38,1.38,0,1,1-1.37-1.37A1.37,1.37,0,0,1,239.58,356.39Z" style="fill:#ebebeb"></path><path d="M239.58,370.06a1.38,1.38,0,1,1-1.37-1.37A1.37,1.37,0,0,1,239.58,370.06Z" style="fill:#ebebeb"></path><rect x="109.28" y="320.96" width="62.68" height="59.6" style="fill:#f0f0f0"></rect><rect x="171.96" y="320.96" width="8.55" height="59.6" style="fill:#e6e6e6"></rect><rect x="112.42" y="325.39" width="56.63" height="14.47" style="fill:#fafafa"></rect><rect x="112.42" y="341.44" width="56.63" height="14.47" style="fill:#fafafa"></rect><rect x="112.42" y="357.5" width="56.63" height="14.47" style="fill:#fafafa"></rect><polygon points="169.05 383.54 112.89 383.54 112.42 380.56 169.05 380.56 169.05 383.54" style="fill:#e6e6e6"></polygon><polygon points="177.06 383.54 169.05 383.54 169.05 380.56 177.53 380.56 177.06 383.54" style="fill:#e0e0e0"></polygon><path d="M135.57,325.39l.17,1.93a1.23,1.23,0,0,0,1.23,1.12h7.31a1.24,1.24,0,0,0,1.23-1.12l.16-1.93Z" style="fill:#ebebeb"></path><path d="M135.57,341.44l.17,1.93A1.23,1.23,0,0,0,137,344.5h7.31a1.24,1.24,0,0,0,1.23-1.13l.16-1.93Z" style="fill:#ebebeb"></path><path d="M135.57,357.5l.17,1.93a1.23,1.23,0,0,0,1.23,1.12h7.31a1.24,1.24,0,0,0,1.23-1.12l.16-1.93Z" style="fill:#ebebeb"></path><path d="M385.81,308l-8.87-2.74a.58.58,0,0,1,.21-1.13l10.21.54c-2.41-4.19-3.84-6.81-5.46-10.09a.57.57,0,0,1,.94-.64c2.18,2.45,4,4.44,6.93,7.58.7-4.06,1.51-7.8,2.52-11.56a.58.58,0,0,1,1.13.2,81.93,81.93,0,0,0-.3,9.1l.28.09q3.69-4.19,7.72-8.06a.57.57,0,0,1,.84.78,107.46,107.46,0,0,0-7.21,10.35q5.26-2,10.57-3.85a.58.58,0,0,1,.48,1.05c-3.68,2.08-7.3,4.21-10.93,6.41l9.34,3a.58.58,0,0,1-.21,1.13l-9.6-.58c1.9,2.22,3.22,3.74,4.75,5.47a.58.58,0,0,1-.75.86l-6.09-4.08c.25,2,.47,3.5.73,5a.58.58,0,0,1-1.11.31c-.64-1.64-1.22-3.27-2-5.44-2.79,13.35-2.06,26.28.63,39.55l-3.34-.61a103.8,103.8,0,0,1,1.57-39.15c-1.68,1.73-2.91,3-4.08,4.35a.57.57,0,0,1-.92-.68c.78-1.31,1.64-2.64,2.78-4.36l-7.28,1.62a.58.58,0,0,1-.38-1.08C381,310.28,383,309.35,385.81,308Z" style="fill:#ebebeb"></path><path d="M381.09,312.62,387.9,309a.77.77,0,0,0-.55-1.43l-8.4,2.06c1.37-3.94,2.23-6.6,3.08-9.52a.78.78,0,0,0-1.41-.61c-1.38,2.29-2.69,4.41-4.63,7.48-1.18-3.14-2.38-6.05-3.71-8.92a.77.77,0,0,0-1.44.52c.58,2.27,1.06,4.56,1.43,6.81l-.25.14c-2.2-1.71-4.46-3.36-6.77-4.93a.77.77,0,0,0-.95,1.2q3.65,3.33,7,7c-3-.52-6-1-8.95-1.48a.77.77,0,0,0-.37,1.49q4.95,1.71,9.88,3.56l-7.24,3.91a.77.77,0,0,0,.55,1.43l7.8-2c-1.13,2-2,3.47-2.88,5a.77.77,0,0,0,1.21.94l4.15-4.09c.08,1.18.13,2.19.17,3.14a.77.77,0,0,0,1.53.1c.19-1.14.38-2.36.59-3.81,5.23,12.59,6.93,25.44,6.76,39l3.17-1.21a103.76,103.76,0,0,0-8.85-38.17c1.2.84,2.21,1.56,3.13,2.24a.77.77,0,0,0,1-1.15c-.62-.66-1.31-1.37-2.1-2.19l5.82.18a.77.77,0,0,0,.23-1.52C385.17,313.68,383.42,313.22,381.09,312.62Z" style="fill:#f0f0f0"></path><path d="M393.11,319.93,388,317.24a.54.54,0,0,1,.38-1l6.25,1.53c-1-2.93-1.65-4.88-2.27-7.06a.54.54,0,0,1,1-.43c1,1.71,2,3.27,3.44,5.56.88-2.35,1.78-4.52,2.78-6.66a.55.55,0,0,1,1,.37c-.45,1.72-.82,3.46-1.09,5.16l.16.1q2.51-2,5.14-3.75a.55.55,0,0,1,.67.86q-2.75,2.49-5.23,5.24,3.35-.58,6.7-1.1a.54.54,0,0,1,.26,1.05c-2.46.85-4.91,1.73-7.37,2.65l5.39,2.92a.55.55,0,0,1-.39,1l-5.81-1.47c.85,1.49,1.49,2.6,2.16,3.73a.55.55,0,0,1-.85.67c-.95-.92-1.88-1.84-3.12-3.07-.06.92-.1,1.71-.13,2.45a.54.54,0,0,1-1.08.07c-.15-.88-.29-1.81-.45-2.93-3.82,9.17-5.06,18.54-4.93,28.41l-2.31-.89a75.65,75.65,0,0,1,6.45-27.83c-.94.66-1.72,1.22-2.43,1.75a.55.55,0,0,1-.72-.82c.49-.52,1-1.08,1.65-1.72l-4.38.13a.55.55,0,0,1-.16-1.07C390.05,320.73,391.36,320.38,393.11,319.93Z" style="fill:#f5f5f5"></path><path d="M394.43,383.54H377.14a2.28,2.28,0,0,1-2.28-2.14L373,351.57a2.3,2.3,0,0,1,2.29-2.43h20.95a2.3,2.3,0,0,1,2.29,2.43l-1.83,29.83A2.3,2.3,0,0,1,394.43,383.54Z" style="fill:#ebebeb"></path><rect x="370.75" y="346.34" width="29.85" height="4.58" rx="2.27" style="fill:#f5f5f5"></rect><rect x="252.97" y="54.95" width="1.35" height="28.02" style="fill:#e6e6e6"></rect><polygon points="210.88 105.21 253.65 79.36 296.41 105.21 210.88 105.21" style="fill:#f0f0f0"></polygon><polygon points="256.6 105.21 253.65 79.36 272.87 105.21 256.6 105.21" style="fill:#fafafa"></polygon><rect x="148.3" y="54.95" width="1.35" height="28.02" style="fill:#e6e6e6"></rect><polygon points="106.21 105.21 148.97 79.36 191.73 105.21 106.21 105.21" style="fill:#f0f0f0"></polygon><polygon points="151.92 105.21 148.97 79.36 168.19 105.21 151.92 105.21" style="fill:#fafafa"></polygon><rect x="357.65" y="54.95" width="1.35" height="28.02" style="fill:#e6e6e6"></rect><polygon points="315.56 105.21 358.32 79.36 401.08 105.21 315.56 105.21" style="fill:#f0f0f0"></polygon><polygon points="361.27 105.21 358.32 79.36 377.54 105.21 361.27 105.21" style="fill:#fafafa"></polygon></g><g id="freepik--Shadow--inject-12"><ellipse id="freepik--path--inject-12" cx="245.18" cy="412.39" rx="193.89" ry="11.32" style="fill:#f5f5f5"></ellipse></g><g id="freepik--Coding--inject-12"><path d="M394.34,158.17l-219.81.05-1.66,1.5L172,187.58h0l-.38,4.28L170.69,202h0l-.7,8.09h0l-.4,4.54H113.42l-1.67,1.5L104,322.51a4.53,4.53,0,0,0,4.58,5H160l.41-4.75h-.27l1-11.5h0l.7-8.1h0l.56-6.35h0l.71-8.1h0l.57-6.48.69-8h0l.28-3.19h56.44l-1,11.16v.13h0l-3.53,40.4h0l-.15,1.7,0,.57h0l-.22,2.48,54.77,1.52,1.66-1.29L274,311.28h0l.71-8.1h0l1.83-20.93.7-8h0l.28-3.19H334l1.54-17.61h0l.56-6.46.7-8h0l.71-8.1h0l1.42-16.27h51.69l3.09,1.5,1.66-1.5L399.69,164A5.62,5.62,0,0,0,394.34,158.17Z" style="fill:#407BFF"></path><path d="M329.61,329H381a5.59,5.59,0,0,0,5.46-5l4.36-52.55-56.83-.2-1.71,1.33Z" style="fill:#407BFF"></path><polygon points="391.85 216.16 396.11 167.44 172.19 167.44 167.93 216.16 114.42 216.16 104.76 326.55 158.28 326.55 163 272.59 219.43 272.59 214.71 326.55 271.15 326.55 275.87 272.59 332.31 272.59 327.59 326.55 382.19 326.55 386.91 272.59 332.31 272.59 337.25 216.16 391.85 216.16" style="fill:#407BFF"></polygon><polygon points="391.85 216.16 396.11 167.44 172.19 167.44 167.93 216.16 114.42 216.16 104.76 326.55 158.28 326.55 163 272.59 219.43 272.59 214.71 326.55 271.15 326.55 275.87 272.59 332.31 272.59 327.59 326.55 382.19 326.55 386.91 272.59 332.31 272.59 337.25 216.16 391.85 216.16" style="fill:#fff;opacity:0.8"></polygon><path d="M244.26,226.08H130.68a1.84,1.84,0,0,1-1.86-2l.36-4a2.27,2.27,0,0,1,2.21-2H245a1.83,1.83,0,0,1,1.85,2l-.35,4A2.27,2.27,0,0,1,244.26,226.08Z" style="fill:#407BFF"></path><path d="M244.26,226.08H130.68a1.84,1.84,0,0,1-1.86-2l.36-4a2.27,2.27,0,0,1,2.21-2H245a1.83,1.83,0,0,1,1.85,2l-.35,4A2.27,2.27,0,0,1,244.26,226.08Z" style="fill:#fff;opacity:0.5"></path><path d="M306.61,226.08H251.86a1.83,1.83,0,0,1-1.86-2l.35-4a2.27,2.27,0,0,1,2.22-2h54.75a1.83,1.83,0,0,1,1.86,2l-.35,4A2.27,2.27,0,0,1,306.61,226.08Z" style="fill:#407BFF"></path><path d="M306.61,226.08H251.86a1.83,1.83,0,0,1-1.86-2l.35-4a2.27,2.27,0,0,1,2.22-2h54.75a1.83,1.83,0,0,1,1.86,2l-.35,4A2.27,2.27,0,0,1,306.61,226.08Z" style="fill:#fff;opacity:0.5"></path><path d="M243,240.53H129.42a1.83,1.83,0,0,1-1.86-2l.35-4a2.27,2.27,0,0,1,2.21-2H243.7a1.83,1.83,0,0,1,1.86,2l-.35,4A2.27,2.27,0,0,1,243,240.53Z" style="fill:#407BFF"></path><path d="M243,240.53H129.42a1.83,1.83,0,0,1-1.86-2l.35-4a2.27,2.27,0,0,1,2.21-2H243.7a1.83,1.83,0,0,1,1.86,2l-.35,4A2.27,2.27,0,0,1,243,240.53Z" style="fill:#fff;opacity:0.5"></path><path d="M217.39,269.43h-90.5a1.83,1.83,0,0,1-1.86-2l.35-4a2.27,2.27,0,0,1,2.22-2h90.49a1.83,1.83,0,0,1,1.86,2l-.35,4A2.27,2.27,0,0,1,217.39,269.43Z" style="fill:#407BFF"></path><path d="M174.33,203.53H169l-.71,8.09h5.29a2.27,2.27,0,0,0,2.21-2l.35-4A1.83,1.83,0,0,0,174.33,203.53Z" style="fill:#407BFF"></path><path d="M234.84,189.08H170.3l-.71,8.09h64.54a2.27,2.27,0,0,0,2.21-2l.35-4A1.83,1.83,0,0,0,234.84,189.08Z" style="fill:#407BFF"></path><path d="M234.84,189.08H170.3l-.71,8.09h64.54a2.27,2.27,0,0,0,2.21-2l.35-4A1.83,1.83,0,0,0,234.84,189.08Z" style="fill:#fff;opacity:0.5"></path><path d="M334.56,246.88H128.86a2.27,2.27,0,0,0-2.21,2l-.35,4a1.83,1.83,0,0,0,1.85,2h205.7Z" style="fill:#407BFF"></path><path d="M334.56,246.88H128.86a2.27,2.27,0,0,0-2.21,2l-.35,4a1.83,1.83,0,0,0,1.85,2h205.7Z" style="fill:#fff;opacity:0.5"></path><path d="M335.82,232.43H251.3a2.27,2.27,0,0,0-2.21,2l-.35,4a1.83,1.83,0,0,0,1.85,2h84.52Z" style="fill:#407BFF"></path><path d="M244.79,275.78H219.15l-.7,8.1h25.63a2.27,2.27,0,0,0,2.21-2l.35-4A1.83,1.83,0,0,0,244.79,275.78Z" style="fill:#407BFF"></path><path d="M162.72,275.78H126.33a2.27,2.27,0,0,0-2.21,2l-.35,4a1.83,1.83,0,0,0,1.85,2H162Z" style="fill:#407BFF"></path><g style="opacity:0.5"><path d="M244.79,275.78H219.15l-.7,8.1h25.63a2.27,2.27,0,0,0,2.21-2l.35-4A1.83,1.83,0,0,0,244.79,275.78Z" style="fill:#fff"></path><path d="M162.72,275.78H126.33a2.27,2.27,0,0,0-2.21,2l-.35,4a1.83,1.83,0,0,0,1.85,2H162Z" style="fill:#fff"></path></g><path d="M161.45,290.23H125.07a2.25,2.25,0,0,0-2.21,2l-.36,4a1.84,1.84,0,0,0,1.86,2h36.38Z" style="fill:#407BFF"></path><path d="M161.45,290.23H125.07a2.25,2.25,0,0,0-2.21,2l-.36,4a1.84,1.84,0,0,0,1.86,2h36.38Z" style="fill:#fff;opacity:0.5"></path><path d="M160.19,304.68H123.8a2.27,2.27,0,0,0-2.21,2l-.35,4a1.83,1.83,0,0,0,1.85,2h36.39Z" style="fill:#407BFF"></path><path d="M224.72,304.68h-8.09l-.71,8.1H224a2.25,2.25,0,0,0,2.21-2l.36-4A1.83,1.83,0,0,0,224.72,304.68Z" style="fill:#407BFF"></path><g style="opacity:0.5"><path d="M160.19,304.68H123.8a2.27,2.27,0,0,0-2.21,2l-.35,4a1.83,1.83,0,0,0,1.85,2h36.39Z" style="fill:#fff"></path><path d="M224.72,304.68h-8.09l-.71,8.1H224a2.25,2.25,0,0,0,2.21-2l.36-4A1.83,1.83,0,0,0,224.72,304.68Z" style="fill:#fff"></path></g><path d="M398.18,164.74a4.52,4.52,0,0,0-4.58-5H172.87l-1.23,14.11H389.31a3,3,0,0,1,3,3.32l-3.42,39h4.75Z" style="fill:#407BFF"></path><path d="M398.18,164.74a4.52,4.52,0,0,0-4.58-5H172.87l-1.23,14.11H389.31a3,3,0,0,1,3,3.32l-3.42,39h4.75Z" style="fill:#fff;opacity:0.30000000000000004"></path><path d="M384,272.59,379.77,321a3.7,3.7,0,0,1-3.62,3.32H327.79l-.42,4.75h51.42a5.59,5.59,0,0,0,5.46-5l4.5-51.42Z" style="fill:#407BFF"></path><path d="M384,272.59,379.77,321a3.7,3.7,0,0,1-3.62,3.32H327.79l-.42,4.75h51.42a5.59,5.59,0,0,0,5.46-5l4.5-51.42Z" style="fill:#fff;opacity:0.30000000000000004"></path><path d="M116.52,216.16,107.35,321a3,3,0,0,0,3,3.32h48.36l-.42,4.75H106.92a4.53,4.53,0,0,1-4.59-5l9.42-107.85Z" style="fill:#407BFF"></path><path d="M116.52,216.16,107.35,321a3,3,0,0,0,3,3.32h48.36l-.42,4.75H106.92a4.53,4.53,0,0,1-4.59-5l9.42-107.85Z" style="fill:#fff;opacity:0.30000000000000004"></path><polygon points="271.35 324.28 214.91 324.28 214.5 329.03 270.93 329.03 271.35 324.28" style="fill:#407BFF"></polygon><polygon points="271.35 324.28 214.91 324.28 214.5 329.03 270.93 329.03 271.35 324.28" style="fill:#fff;opacity:0.30000000000000004"></polygon><path d="M273.06,304.68H232.32a2.27,2.27,0,0,0-2.21,2l-.35,4a1.83,1.83,0,0,0,1.85,2h40.75Z" style="fill:#407BFF"></path><path d="M333.24,304.68H329.5l-.71,8.1h3.74a2.27,2.27,0,0,0,2.21-2l.35-4A1.83,1.83,0,0,0,333.24,304.68Z" style="fill:#407BFF"></path><path d="M275.59,275.78H252.38a2.27,2.27,0,0,0-2.21,2l-.35,4a1.83,1.83,0,0,0,1.86,2h23.2Z" style="fill:#407BFF"></path><path d="M402.7,181.86h0a.49.49,0,0,1-.45-.54l1.83-21a5.1,5.1,0,0,0-5.16-5.66h-17a.5.5,0,0,1-.5-.5.51.51,0,0,1,.5-.5h17a6.09,6.09,0,0,1,6.16,6.74l-1.84,21A.5.5,0,0,1,402.7,181.86Z" style="fill:#407BFF"></path><path d="M378.09,154.68H373.8a.5.5,0,0,1-.5-.5.51.51,0,0,1,.5-.5h4.29a.5.5,0,0,1,.5.5A.5.5,0,0,1,378.09,154.68Z" style="fill:#407BFF"></path><path d="M271.87,338.3h-6.42a.51.51,0,0,1-.5-.5.5.5,0,0,1,.5-.5h6.42a.5.5,0,0,1,.5.5A.51.51,0,0,1,271.87,338.3Z" style="fill:#407BFF"></path><path d="M260.15,338.3H214a.51.51,0,0,1-.5-.5.5.5,0,0,1,.5-.5h46.13a.5.5,0,0,1,.5.5A.5.5,0,0,1,260.15,338.3Z" style="fill:#407BFF"></path><path d="M231.92,169.06a2.31,2.31,0,0,1-.91-.95,2.57,2.57,0,0,1-.24-1.36,2.75,2.75,0,0,1,.48-1.36,2.89,2.89,0,0,1,1.07-.95,3.07,3.07,0,0,1,1.45-.34,2.68,2.68,0,0,1,1.37.34,2.25,2.25,0,0,1,.91.95,2.46,2.46,0,0,1,.23,1.36,2.81,2.81,0,0,1-.47,1.36,2.89,2.89,0,0,1-1.07.95,3.06,3.06,0,0,1-1.44.34A2.72,2.72,0,0,1,231.92,169.06Zm2.49-.58a2.15,2.15,0,0,0,1.13-1.73,1.81,1.81,0,0,0-.17-1,1.68,1.68,0,0,0-.66-.71,1.84,1.84,0,0,0-1-.26,2.16,2.16,0,0,0-1.06.26,2.24,2.24,0,0,0-.79.71,2.11,2.11,0,0,0-.35,1,1.92,1.92,0,0,0,.18,1,1.62,1.62,0,0,0,.66.71,1.88,1.88,0,0,0,1,.26A2.1,2.1,0,0,0,234.41,168.48Z" style="fill:#fff"></path><path d="M240.52,165.63a1.61,1.61,0,0,1,.64.7,2,2,0,0,1,.17,1,2.34,2.34,0,0,1-.35,1.05,2.1,2.1,0,0,1-.77.71,2.28,2.28,0,0,1-1,.25,1.67,1.67,0,0,1-.76-.17,1.28,1.28,0,0,1-.56-.47l-.18,2H237l.47-5.36h.68l-.05.62a1.62,1.62,0,0,1,.64-.49,1.85,1.85,0,0,1,.82-.17A1.93,1.93,0,0,1,240.52,165.63Zm-.67,3a1.36,1.36,0,0,0,.52-.49,1.71,1.71,0,0,0,.24-.72,1.52,1.52,0,0,0-.11-.72,1.14,1.14,0,0,0-.43-.49,1.44,1.44,0,0,0-1.87.49,1.71,1.71,0,0,0-.24.72,1.41,1.41,0,0,0,.11.72,1,1,0,0,0,.43.49,1.21,1.21,0,0,0,.66.18A1.37,1.37,0,0,0,239.85,168.59Z" style="fill:#fff"></path><path d="M245.83,167.62h-3.19a1.1,1.1,0,0,0,.38.83,1.39,1.39,0,0,0,.94.32,1.6,1.6,0,0,0,1.18-.48l.35.46a1.8,1.8,0,0,1-.71.47,2.35,2.35,0,0,1-.89.17,2.22,2.22,0,0,1-1.09-.26,1.66,1.66,0,0,1-.68-.71,2,2,0,0,1-.17-1,2.29,2.29,0,0,1,.34-1,2.12,2.12,0,0,1,.77-.72,2.16,2.16,0,0,1,1-.25,1.86,1.86,0,0,1,1,.25,1.56,1.56,0,0,1,.62.72,2.12,2.12,0,0,1,.16,1.05C245.85,167.46,245.84,167.53,245.83,167.62Zm-2.67-1.33a1.4,1.4,0,0,0-.48.82h2.52a1.15,1.15,0,0,0-.33-.82A1.12,1.12,0,0,0,244,166,1.32,1.32,0,0,0,243.16,166.29Z" style="fill:#fff"></path><path d="M250.27,165.81a1.58,1.58,0,0,1,.33,1.27l-.2,2.26h-.71l.19-2.18a1.06,1.06,0,0,0-.2-.85.92.92,0,0,0-.76-.29,1.35,1.35,0,0,0-.94.33,1.48,1.48,0,0,0-.42,1l-.17,2h-.71l.34-3.92h.68l0,.59a1.62,1.62,0,0,1,.62-.47,2.15,2.15,0,0,1,.85-.16A1.49,1.49,0,0,1,250.27,165.81Z" style="fill:#fff"></path><path d="M254.21,169.22a2.09,2.09,0,0,1-.81-.47l.32-.58a2.1,2.1,0,0,0,.72.44,2.69,2.69,0,0,0,.94.16,1.76,1.76,0,0,0,1-.22.73.73,0,0,0,.37-.58.52.52,0,0,0-.13-.43,1.15,1.15,0,0,0-.41-.26c-.17-.06-.4-.12-.71-.2a5.73,5.73,0,0,1-.92-.28,1.35,1.35,0,0,1-.57-.43,1.06,1.06,0,0,1-.19-.79,1.43,1.43,0,0,1,.28-.75,1.77,1.77,0,0,1,.71-.53,2.75,2.75,0,0,1,1.13-.2,3.35,3.35,0,0,1,.89.12,2,2,0,0,1,.73.34l-.29.59a2.75,2.75,0,0,0-.67-.32,2.55,2.55,0,0,0-.72-.1,1.62,1.62,0,0,0-1,.23.76.76,0,0,0-.37.59.5.5,0,0,0,.14.43,1.11,1.11,0,0,0,.42.26,7.12,7.12,0,0,0,.69.2,6.53,6.53,0,0,1,.92.28,1.35,1.35,0,0,1,.57.43,1,1,0,0,1,.19.78,1.36,1.36,0,0,1-.29.74,1.56,1.56,0,0,1-.72.54,2.92,2.92,0,0,1-1.12.19A3.46,3.46,0,0,1,254.21,169.22Z" style="fill:#fff"></path><path d="M259,169.13a1.64,1.64,0,0,1-.66-.72,1.85,1.85,0,0,1-.17-1,2.11,2.11,0,0,1,.35-1,2,2,0,0,1,.79-.72,2.29,2.29,0,0,1,1.08-.25,2,2,0,0,1,1,.25,1.61,1.61,0,0,1,.67.72,2,2,0,0,1,.17,1,2.16,2.16,0,0,1-.36,1,2.07,2.07,0,0,1-.78.72,2.33,2.33,0,0,1-1.08.26A2,2,0,0,1,259,169.13Zm1.78-.54a1.43,1.43,0,0,0,.52-.49,1.57,1.57,0,0,0,.23-.72,1.41,1.41,0,0,0-.11-.72,1.08,1.08,0,0,0-.43-.49,1.3,1.3,0,0,0-.66-.17,1.47,1.47,0,0,0-.69.17,1.52,1.52,0,0,0-.52.49,1.71,1.71,0,0,0-.24.72,1.52,1.52,0,0,0,.11.72,1.11,1.11,0,0,0,.44.49,1.21,1.21,0,0,0,.66.18A1.37,1.37,0,0,0,260.74,168.59Z" style="fill:#fff"></path><path d="M267,165.42l-.35,3.92H266l.05-.59a1.59,1.59,0,0,1-.61.47,1.85,1.85,0,0,1-.78.17,1.59,1.59,0,0,1-1.2-.44,1.54,1.54,0,0,1-.34-1.27l.2-2.26H264l-.19,2.17a1.16,1.16,0,0,0,.2.87,1,1,0,0,0,.76.29,1.28,1.28,0,0,0,.92-.34,1.52,1.52,0,0,0,.41-1l.17-2Z" style="fill:#fff"></path><path d="M269.6,165.56a2.06,2.06,0,0,1,.9-.18l-.06.69h-.17a1.29,1.29,0,0,0-.93.35,1.46,1.46,0,0,0-.42,1l-.17,2H268l.34-3.92h.68l-.05.66A1.36,1.36,0,0,1,269.6,165.56Z" style="fill:#fff"></path><path d="M271.65,169.13a1.63,1.63,0,0,1-.68-.72,1.85,1.85,0,0,1-.17-1,2.14,2.14,0,0,1,1.15-1.75,2.37,2.37,0,0,1,1.1-.25,2,2,0,0,1,.93.21,1.34,1.34,0,0,1,.59.63l-.57.34a1.21,1.21,0,0,0-.42-.42,1.3,1.3,0,0,0-.6-.14,1.51,1.51,0,0,0-.7.17,1.47,1.47,0,0,0-.53.49,1.71,1.71,0,0,0-.24.72,1.43,1.43,0,0,0,.12.73,1,1,0,0,0,.43.48,1.3,1.3,0,0,0,.68.18,1.41,1.41,0,0,0,1.12-.57l.51.34a1.85,1.85,0,0,1-.7.63,2.26,2.26,0,0,1-1,.22A2.1,2.1,0,0,1,271.65,169.13Z" style="fill:#fff"></path><path d="M278.85,167.62h-3.19a1.1,1.1,0,0,0,.38.83,1.39,1.39,0,0,0,.94.32,1.6,1.6,0,0,0,1.18-.48l.35.46a1.8,1.8,0,0,1-.71.47,2.37,2.37,0,0,1-.9.17,2.21,2.21,0,0,1-1.08-.26,1.66,1.66,0,0,1-.68-.71,1.9,1.9,0,0,1-.17-1,2.29,2.29,0,0,1,.34-1,2.08,2.08,0,0,1,1.8-1,1.87,1.87,0,0,1,1,.25,1.62,1.62,0,0,1,.62.72,2.12,2.12,0,0,1,.16,1.05C278.87,167.46,278.86,167.53,278.85,167.62Zm-2.67-1.33a1.4,1.4,0,0,0-.48.82h2.52a1.15,1.15,0,0,0-.33-.82,1.12,1.12,0,0,0-.83-.31A1.32,1.32,0,0,0,276.18,166.29Z" style="fill:#fff"></path><path d="M174.23,154.44h6.41a.5.5,0,0,0,0-1h-6.41a.5.5,0,1,0,0,1Z" style="fill:#407BFF"></path><path d="M185.94,154.44h46.13a.5.5,0,0,0,0-1H185.94a.5.5,0,0,0,0,1Z" style="fill:#407BFF"></path></g><g id="freepik--character-2--inject-12"><path d="M161.65,301.82l5.51-.76.42-1.35a1.08,1.08,0,0,1,1.31-.71l.63.17,2.38-1.25a1.06,1.06,0,0,1,.58-.11h0a1.08,1.08,0,0,1,1,1.1l-.06,2.17a.66.66,0,0,1,0,.14l-.25,1.64a1.09,1.09,0,0,1-.9.9l-3.45.54-6.33,1.35Z" style="fill:#ffb573"></path><path d="M165.51,300.29a58.28,58.28,0,0,1-8.55,0c-1.51-.12-2.83-1.23-4-2.78l-4.77,7a10.69,10.69,0,0,0,3.86,2.7c6,1.9,14.43-1.54,14.43-1.54A5.38,5.38,0,0,0,165.51,300.29Z" style="fill:#263238"></path><path d="M165.51,300.29a58.28,58.28,0,0,1-8.55,0c-1.51-.12-2.83-1.23-4-2.78l-4.77,7a10.69,10.69,0,0,0,3.86,2.7c6,1.9,14.43-1.54,14.43-1.54A5.38,5.38,0,0,0,165.51,300.29Z" style="opacity:0.30000000000000004"></path><polygon points="155.71 277 150.4 334.75 205.14 334.97 206.84 333.58 212.19 277.26 155.71 277" style="fill:#407BFF"></polygon><polygon points="148.95 332.27 205.37 332.48 210.29 278.52 153.87 278.31 148.95 332.27" style="fill:#407BFF"></polygon><polygon points="148.95 332.27 205.37 332.48 210.29 278.52 153.87 278.31 148.95 332.27" style="fill:#fff;opacity:0.8"></polygon><polygon points="150.21 318.5 206.62 318.71 207.36 310.61 150.94 310.4 150.21 318.5" style="fill:#407BFF"></polygon><polygon points="150.21 318.5 206.62 318.71 207.36 310.61 150.94 310.4 150.21 318.5" style="fill:#fff;opacity:0.5"></polygon><path d="M193.84,296.1,152.26,296l-.74,8.1,41.58.15a2.26,2.26,0,0,0,2.22-2l.37-4A1.85,1.85,0,0,0,193.84,296.1Z" style="fill:#407BFF"></path><path d="M193.84,296.1,152.26,296l-.74,8.1,41.58.15a2.26,2.26,0,0,0,2.22-2l.37-4A1.85,1.85,0,0,0,193.84,296.1Z" style="fill:#fff;opacity:0.5"></path><polygon points="152.84 289.6 209.26 289.81 210 281.71 153.58 281.5 152.84 289.6" style="fill:#407BFF"></polygon><polygon points="152.84 289.6 209.26 289.81 210 281.71 153.58 281.5 152.84 289.6" style="fill:#fff;opacity:0.5"></polygon><polygon points="149.16 330 148.72 334.75 205.14 334.96 205.57 330.21 149.16 330" style="fill:#407BFF"></polygon><polygon points="149.16 330 148.72 334.75 205.14 334.96 205.57 330.21 149.16 330" style="fill:#fff;opacity:0.30000000000000004"></polygon><path d="M145.39,284s3-.31,3-5.87c0,0,2.79-1.27,4.59.37s-1.62,5.48.62,7.09C153.57,285.54,151.6,286.86,145.39,284Z" style="fill:#ffb573"></path><path d="M158.61,270.29c0-.37.24-.66.49-.64s.41.33.39.71-.25.65-.49.64S158.58,270.66,158.61,270.29Z" style="fill:#263238"></path><path d="M158.86,271l2,2.6a2.45,2.45,0,0,1-2.16.39Z" style="fill:#ed893e"></path><path d="M145.75,269.71c.23,4.7.22,6.7,2.56,9.15,3.6,2.5,9.26,2.37,10.45-2.31,1.06-4.21.52-11.18-4.06-13.14a6.44,6.44,0,0,0-8.95,6.3Z" style="fill:#ffb573"></path><path d="M157.91,269.19a.23.23,0,0,0,.2,0,1.74,1.74,0,0,1,1.52-.43.22.22,0,0,0,.27-.15.23.23,0,0,0-.15-.27,2.17,2.17,0,0,0-1.92.51.21.21,0,0,0,0,.3h0A.19.19,0,0,0,157.91,269.19Z" style="fill:#263238"></path><path d="M150.52,280a6.25,6.25,0,0,0,2.51,2.29c.15-.61.33-1.23.42-1.8A8.79,8.79,0,0,1,150.52,280Z" style="opacity:0.2"></path><path d="M143.31,284.81s.56-3.54,4.85-3.56c6.06,0,7.84,2.84,7.84,2.84Z" style="fill:#263238"></path><path d="M143.31,284.81s.56-3.54,4.85-3.56c6.06,0,7.84,2.84,7.84,2.84Z" style="opacity:0.30000000000000004"></path><polygon points="141.97 403.03 142.51 411.99 147.53 411.81 147.82 403.21 141.97 403.03" style="fill:#ffb573"></polygon><path d="M148.37,411.24a.13.13,0,0,1-.1-.1.14.14,0,0,1,.06-.13c.08-.05,1.91-1.1,2.78-.86a.62.62,0,0,1,.39.28.47.47,0,0,1,0,.54,2.24,2.24,0,0,1-1.54.41A9.63,9.63,0,0,1,148.37,411.24Zm.4-.17c1,.12,2.3.1,2.54-.24,0,0,.07-.12,0-.27a.32.32,0,0,0-.25-.17.85.85,0,0,0-.23,0A5.9,5.9,0,0,0,148.77,411.07Z" style="fill:#407BFF"></path><path d="M148.31,411.23a.11.11,0,0,1-.06-.11,3.57,3.57,0,0,1,.81-2,1,1,0,0,1,.69-.22c.34,0,.45.21.46.35.11.59-1.14,1.73-1.77,2h-.05A.08.08,0,0,1,148.31,411.23Zm1.35-2.12a.65.65,0,0,0-.42.16,2.89,2.89,0,0,0-.69,1.61c.65-.39,1.47-1.28,1.43-1.64,0,0,0-.12-.25-.14Z" style="fill:#407BFF"></path><path d="M147.84,410.51l-5.72,0a.45.45,0,0,0-.45.36l-1,4.66a.75.75,0,0,0,.58.91l.16,0c2.06-.05,3.89-.17,6.46-.18,3,0,2.26.36,5.82.39,2.15,0,2.53-2.42,1.62-2.54-4.17-.5-4.61-1.76-6.22-3.24A1.81,1.81,0,0,0,147.84,410.51Z" style="fill:#263238"></path><polygon points="142.25 407.66 147.67 407.66 147.82 403.21 141.97 403.03 142.25 407.66" style="opacity:0.2"></polygon><path d="M138.27,324.87s-1.07,7.52,1.58,20.11c1.12,5.32,2.9,16.1,2.85,21.53,0,3.6-.79,5.23-2.06,14.25s.63,25.34.63,25.34l7.28.08s4.54-30.15,5.39-40.62c.43-5.32.63-21.37.63-21.37L152,324.87Z" style="fill:#407BFF"></path><path d="M147.23,337.63s1.63,11.49,7,20.9c.21-6.53.3-14.34.3-14.34l-.06-.5-3.72-5.18Z" style="opacity:0.1"></path><polygon points="163.55 403.22 164.46 412.16 169.47 411.77 169.4 403.16 163.55 403.22" style="fill:#ffb573"></polygon><path d="M170.29,411.16a.12.12,0,0,1-.1-.09.12.12,0,0,1,.05-.14c.08-.05,1.85-1.17,2.74-1a.67.67,0,0,1,.4.28.47.47,0,0,1,0,.54,2.23,2.23,0,0,1-1.52.47A9.6,9.6,0,0,1,170.29,411.16Zm.39-.18c1,.07,2.3,0,2.53-.35,0,0,.06-.12,0-.27a.31.31,0,0,0-.25-.16.65.65,0,0,0-.24,0A5.79,5.79,0,0,0,170.68,411Z" style="fill:#407BFF"></path><path d="M170.22,411.16a.15.15,0,0,1-.06-.11,3.58,3.58,0,0,1,.72-2.06.92.92,0,0,1,.68-.25c.35,0,.46.19.48.33.14.58-1.07,1.78-1.68,2.08h-.14Zm1.27-2.18a.64.64,0,0,0-.42.18,2.88,2.88,0,0,0-.62,1.63c.63-.41,1.41-1.34,1.36-1.69,0,0,0-.12-.25-.13Z" style="fill:#407BFF"></path><path d="M169.72,410.45l-5.71.27a.45.45,0,0,0-.43.38l-.82,4.7a.77.77,0,0,0,.62.89h.16c2.06-.13,3.88-.33,6.45-.45,3-.14,2.27.26,5.83.15,2.15-.08,2.42-2.53,1.51-2.61-4.18-.33-4.67-1.56-6.35-3A1.89,1.89,0,0,0,169.72,410.45Z" style="fill:#263238"></path><polygon points="169.4 403.16 163.55 403.22 164 407.63 169.44 407.31 169.4 403.16" style="opacity:0.2"></polygon><path d="M146,324.87a42.31,42.31,0,0,0,4.77,22c5.84,10.61,6.42,13.73,6.84,18.68.4,4.74.43,6.34,1.06,16.15s4.2,24.47,4.2,24.47l7.52-.48s0-31.05-1.27-42C168,353.87,162,324.87,162,324.87Z" style="fill:#407BFF"></path><path d="M143.31,283.58s-9.52,1.23-10.7,6.7,1.55,15.91,5.35,17.22S143.31,283.58,143.31,283.58Z" style="fill:#263238"></path><path d="M139.49,288.69l-1.67-1s-2.35,3-3.82,14.49c1,2.67,2.39,4.79,4,5.33s2.69-3.28,3.54-8Z" style="opacity:0.4"></path><path d="M137.24,326.26s9.85,2.73,26.36,0a156.22,156.22,0,0,1,.59-27.67c1.78-13.66-1.54-14.61-10.8-15.08s-15.85-1-16.15,7.48C136.52,310.58,137.24,326.26,137.24,326.26Z" style="fill:#263238"></path><path d="M159.9,291.38s.71,7.72,3.73,12.77h0c.14-1.85.32-3.72.56-5.56a37.21,37.21,0,0,0,.39-7.77L161.34,286Z" style="opacity:0.4"></path><path d="M183.49,302.72,189,302l.43-1.35a1.08,1.08,0,0,1,1.31-.72l.62.17,2.38-1.24a1.17,1.17,0,0,1,.58-.12h0a1.08,1.08,0,0,1,1,1.1l0,2.18s0,.09,0,.14l-.26,1.64a1.08,1.08,0,0,1-.9.9l-3.44.54-6.33,1.34Z" style="fill:#ffb573"></path><path d="M159,284.09s6.89,0,10.09,4.64c2.68,3.88,5.46,12.12,9.74,12.47a58.28,58.28,0,0,0,8.55,0,5.35,5.35,0,0,1,1,5.35s-8.43,3.44-14.43,1.54-15.61-19.59-15.61-19.59Z" style="fill:#263238"></path><path d="M153.82,272.25a11.72,11.72,0,0,0,.83-5.23s4.43,1.66,5.09-.41a2,2,0,0,0-1.46-2.62s2.19-.29.94-1.78-3.5-.95-3.5-.95,2.25-1.42.53-2.25-4.27,1.72-4.27,1.72,1.47-2.38-.24-2.79-3.8,4-3.8,4-4.52.45-4.63,2.05a1.44,1.44,0,0,0,1.48,1.61s-3,.47-2.49,2a1.09,1.09,0,0,0,1.78.64s-1.89,1.65-1.24,3.16c.47,1.09,1.3.54,1.3.54s-.53,2.15.36,3.18,1.24-.81,1.24-.81a4.42,4.42,0,0,0,1.56,3.29s1.42-1.39,4.27-.44Z" style="fill:#263238"></path><path d="M154.12,271.3a3.61,3.61,0,0,1,1.18,2.51c0,1.28-1.16,1.63-2.21,1s-2.12-1.83-1.67-3A1.64,1.64,0,0,1,154.12,271.3Z" style="fill:#ffb573"></path></g></svg>