<svg width="104" height="40" viewBox="0 0 104 40" fill="none" xmlns="http://www.w3.org/2000/svg">
<path d="M38 20C38 29.2654 30.9995 36.8957 21.9991 37.8902C21.9938 33.9301 21.9549 30.7334 21.6753 28.2166C21.3492 25.2821 20.6599 22.8314 18.9142 21.0858C17.1686 19.3401 14.7179 18.6508 11.7834 18.3247C9.26658 18.0451 6.06992 18.0062 2.10976 18.0009C3.10426 9.00054 10.7346 2 20 2C29.9411 2 38 10.0589 38 20Z" stroke="url(#paint0_linear_10_30)" stroke-width="4"/>
<path d="M19.8 11.152C21.576 11.152 23.128 11.504 24.456 12.208C25.784 12.912 26.808 13.904 27.528 15.184C28.264 16.448 28.632 17.912 28.632 19.576C28.632 21.224 28.264 22.688 27.528 23.968C26.808 25.248 25.776 26.24 24.432 26.944C23.104 27.648 21.56 28 19.8 28H13.488V11.152H19.8ZM19.536 24.448C21.088 24.448 22.296 24.024 23.16 23.176C24.024 22.328 24.456 21.128 24.456 19.576C24.456 18.024 24.024 16.816 23.16 15.952C22.296 15.088 21.088 14.656 19.536 14.656H17.592V24.448H19.536ZM41.2695 21.088C41.2695 21.472 41.2455 21.872 41.1975 22.288H31.9095C31.9735 23.12 32.2375 23.76 32.7015 24.208C33.1815 24.64 33.7655 24.856 34.4535 24.856C35.4775 24.856 36.1895 24.424 36.5895 23.56H40.9575C40.7335 24.44 40.3255 25.232 39.7335 25.936C39.1575 26.64 38.4295 27.192 37.5495 27.592C36.6695 27.992 35.6855 28.192 34.5975 28.192C33.2855 28.192 32.1175 27.912 31.0935 27.352C30.0695 26.792 29.2695 25.992 28.6935 24.952C28.1175 23.912 27.8295 22.696 27.8295 21.304C27.8295 19.912 28.1095 18.696 28.6695 17.656C29.2455 16.616 30.0455 15.816 31.0695 15.256C32.0935 14.696 33.2695 14.416 34.5975 14.416C35.8935 14.416 37.0455 14.688 38.0535 15.232C39.0615 15.776 39.8455 16.552 40.4055 17.56C40.9815 18.568 41.2695 19.744 41.2695 21.088ZM37.0695 20.008C37.0695 19.304 36.8295 18.744 36.3495 18.328C35.8695 17.912 35.2695 17.704 34.5495 17.704C33.8615 17.704 33.2775 17.904 32.7975 18.304C32.3335 18.704 32.0455 19.272 31.9335 20.008H37.0695ZM45.2586 16.84C45.7386 16.104 46.3386 15.528 47.0586 15.112C47.7786 14.68 48.5786 14.464 49.4586 14.464V18.808H48.3306C47.3066 18.808 46.5386 19.032 46.0266 19.48C45.5146 19.912 45.2586 20.68 45.2586 21.784V28H41.1546V14.608H45.2586V16.84ZM61.7642 21.088C61.7642 21.472 61.7402 21.872 61.6922 22.288H52.4042C52.4682 23.12 52.7322 23.76 53.1962 24.208C53.6762 24.64 54.2602 24.856 54.9482 24.856C55.9722 24.856 56.6842 24.424 57.0842 23.56H61.4522C61.2282 24.44 60.8202 25.232 60.2282 25.936C59.6522 26.64 58.9242 27.192 58.0442 27.592C57.1642 27.992 56.1802 28.192 55.0922 28.192C53.7802 28.192 52.6122 27.912 51.5882 27.352C50.5642 26.792 49.7642 25.992 49.1882 24.952C48.6122 23.912 48.3242 22.696 48.3242 21.304C48.3242 19.912 48.6042 18.696 49.1642 17.656C49.7402 16.616 50.5402 15.816 51.5642 15.256C52.5882 14.696 53.7642 14.416 55.0922 14.416C56.3882 14.416 57.5402 14.688 58.5482 15.232C59.5562 15.776 60.3402 16.552 60.9002 17.56C61.4762 18.568 61.7642 19.744 61.7642 21.088ZM57.5642 20.008C57.5642 19.304 57.3242 18.744 56.8442 18.328C56.3642 17.912 55.7642 17.704 55.0442 17.704C54.3562 17.704 53.7722 17.904 53.2922 18.304C52.8282 18.704 52.5402 19.272 52.4282 20.008H57.5642ZM60.8333 21.304C60.8333 19.912 61.1133 18.696 61.6733 17.656C62.2493 16.616 63.0413 15.816 64.0493 15.256C65.0733 14.696 66.2413 14.416 67.5533 14.416C69.2333 14.416 70.6333 14.856 71.7533 15.736C72.8893 16.616 73.6333 17.856 73.9853 19.456H69.6173C69.2493 18.432 68.5373 17.92 67.4813 17.92C66.7293 17.92 66.1293 18.216 65.6813 18.808C65.2333 19.384 65.0093 20.216 65.0093 21.304C65.0093 22.392 65.2333 23.232 65.6813 23.824C66.1293 24.4 66.7293 24.688 67.4813 24.688C68.5373 24.688 69.2493 24.176 69.6173 23.152H73.9853C73.6333 24.72 72.8893 25.952 71.7533 26.848C70.6173 27.744 69.2173 28.192 67.5533 28.192C66.2413 28.192 65.0733 27.912 64.0493 27.352C63.0413 26.792 62.2493 25.992 61.6733 24.952C61.1133 23.912 60.8333 22.696 60.8333 21.304ZM82.0845 28L78.0045 22.384V28H73.9005V10.24H78.0045V20.056L82.0605 14.608H87.1245L81.5565 21.328L87.1725 28H82.0845Z" fill="white"/>
<defs>
<linearGradient id="paint0_linear_10_30" x1="0" y1="0" x2="40" y2="40" gradientUnits="userSpaceOnUse">
<stop stop-color="#384CFF"/>
<stop offset="1" stop-color="#389FFF"/>
</linearGradient>
</defs>
</svg>
